<svg fill="none" height="15" viewBox="0 0 16 15" width="16" xmlns="http://www.w3.org/2000/svg">
    <g clip-path="url(#clip0_1517_45700)">
        <path
            d="M9.64088 6.51026C10.3326 6.31455 11.5586 6.34042 11.9174 6.36629C12.5451 6.41128 13.1727 6.39778 13.2807 7.15926C13.3527 7.67216 13.1806 8.13894 12.4202 8.22217C12.1525 8.25142 11.8252 8.26716 11.5553 8.3099L11.3438 8.54273C11.5935 8.50899 12.166 8.52024 12.3381 8.49887C13.0647 8.41001 13.6788 8.70133 13.7711 9.39981C13.8521 10.0117 13.3909 10.4841 12.7363 10.4481C12.5124 10.4357 11.8803 10.5223 11.2527 10.5392L11.2043 10.6663L11.1818 10.7046C11.58 10.7158 11.9613 10.7316 12.2324 10.745C12.9579 10.781 13.3538 11.1702 13.3437 11.6876C13.3313 12.3164 12.743 12.5526 12.3224 12.5874C12.0074 12.6133 10.8804 12.5807 10.1234 12.5188L10.0042 12.7224C10.0582 12.7235 11.508 12.7933 11.5631 12.7966C12.2279 12.8461 12.5113 13.0868 12.4944 13.5615C12.4708 14.2274 11.76 14.404 11.3753 14.4647C10.751 14.5637 9.9187 14.5344 9.31245 14.5513C8.00096 14.5873 5.31724 14.6458 4.06423 13.548C3.63682 13.1734 3.20603 12.6639 2.83935 12.5177C2.07113 12.2118 2.00476 11.2107 2.03963 9.94533C2.0565 9.33345 1.84617 7.61592 2.58852 7.19975C3.63007 6.61599 5.39597 6.17508 5.9831 5.71392C6.94592 4.95694 7.5083 3.72531 7.76475 3.00433C8.25291 1.63097 8.40138 0.638916 9.25509 0.638916C10.751 0.638916 10.7117 1.97515 10.7398 2.64327C10.7949 3.95139 9.18085 6.37191 9.64088 6.51026Z"
            fill="#E0BB95" />
        <path
            d="M8.35357 9.51801C8.36819 10.1918 8.88784 10.4808 8.91146 10.4932C8.6134 10.4864 7.96777 10.789 7.96777 11.4313C7.96777 11.961 8.25572 12.3738 8.54479 12.5144C8.3547 12.5549 7.99589 12.8136 7.99589 13.3783C7.99589 14.2061 8.61002 14.5087 9.07456 14.566C9.53909 14.6234 10.8303 14.5458 11.2566 14.4805C11.485 14.4457 10.1251 14.4299 9.12967 14.2994C8.84398 14.2623 8.50317 13.9935 8.44805 13.6313C8.44805 13.6313 8.36707 13.1533 8.80348 12.8777C8.80348 12.8777 8.98795 12.7191 9.8439 12.7259L10.1026 12.7293C10.1836 12.7349 11.2173 12.7709 11.5614 12.7956C11.7133 12.8069 11.8438 12.8282 11.9562 12.8597C11.9382 12.8339 11.918 12.7911 11.9247 12.7293C11.9394 12.5988 12.0248 12.5932 12.0473 12.5932L11.8426 12.5819L11.1138 12.5403C10.3872 12.4964 9.36362 12.4267 9.24552 12.3795C9.24552 12.3795 8.53241 12.1995 8.53241 11.4684C8.53241 11.4684 8.49529 10.8464 9.44686 10.8171C9.44686 10.8171 11.6953 10.6878 12.6469 10.8138C12.6469 10.8138 12.5108 10.5607 12.7357 10.4471C12.7357 10.4471 11.1307 10.4864 10.1251 10.5134C9.11955 10.5404 8.90471 10.0062 8.87884 9.71485C8.87547 9.67098 8.86647 9.60125 8.86647 9.51914C8.86647 8.93988 9.37487 8.86339 10.1026 8.76891C11.6728 8.56308 12.3375 8.49897 12.3375 8.49897C12.4241 8.48884 12.5063 8.48322 12.5861 8.48434C12.5422 8.4596 12.4826 8.41348 12.4748 8.337C12.4703 8.28751 12.495 8.21215 12.495 8.21215C12.495 8.21215 11.8179 8.26726 10.773 8.40673C9.72918 8.54621 8.89459 8.48209 8.81923 7.87134C8.76412 7.42368 8.83948 7.13911 9.03294 6.91753C9.27139 6.64421 9.65494 6.50811 9.65494 6.50811C9.65494 6.50811 9.61108 6.49911 9.58633 6.46649C9.56159 6.43275 9.56046 6.37988 9.56046 6.37988C8.709 6.48786 8.12637 7.02888 8.17473 7.72399C8.20848 8.19977 8.33445 8.51696 8.65051 8.67106C8.65164 8.66993 8.33895 8.8454 8.35357 9.51801Z"
            fill="#C48E6A" />
        <path
            d="M8.70134 8.00854L8.32791 8.11652C8.32791 8.11652 8.8813 10.1535 6.83871 11.5572C6.83871 11.5572 6.57663 11.7327 6.70373 11.8643C6.70373 11.8643 6.79259 12.0173 7.16827 11.7304C7.16827 11.7293 9.16137 10.4291 8.70134 8.00854Z"
            fill="#C48E6A" />
    </g>
    <defs>
        <clipPath id="clip0_1517_45700">
            <rect fill="white" height="14.3972" transform="translate(0.703125 0.414062)"
                width="14.3972" />
        </clipPath>
    </defs>
</svg>
