<svg fill="none" height="16" viewBox="0 0 16 16" width="16" xmlns="http://www.w3.org/2000/svg">
    <g clip-path="url(#clip0_1517_45669)">
        <path
            d="M14.1984 9.34181C13.6541 9.13378 12.9266 9.06181 12.5397 9.39242C12.1304 9.74102 11.9572 9.89396 11.215 10.5406C10.2333 10.8363 10.5527 8.48717 10.6112 7.84394C10.6145 7.80684 11.0823 4.0363 11.1869 3.40094C11.3095 2.65313 11.0565 2.15721 10.5414 2.07287C9.98817 1.98291 9.63282 2.72285 9.57097 3.10631C9.47538 3.69782 9.1414 5.59377 8.97722 6.96794C8.97722 6.96794 8.95135 7.09951 8.91762 7.12425C8.67697 7.3008 8.52291 6.99155 8.52291 6.99155C8.45431 5.95137 8.45881 2.91514 8.45431 2.33826C8.44307 1.34193 8.13944 0.870755 7.61879 0.869631C6.93283 0.868506 6.72704 1.45776 6.73716 2.43047C6.74391 3.01185 6.83499 5.19119 6.82037 6.84986C6.5696 7.29967 6.26598 6.91171 6.26598 6.91171C6.06694 5.33737 5.88927 3.27274 5.8083 2.78807C5.67673 2.0009 5.41022 1.63993 4.88956 1.68266C4.34867 1.72652 4.15862 2.16958 4.25196 3.08832C4.3183 3.73942 4.57582 6.27973 4.70064 7.32779C4.5657 7.9519 4.13388 7.60105 4.13388 7.60105C3.84375 6.08406 3.67507 5.26878 3.57724 4.88756C3.37145 4.08128 3.12068 3.83163 2.61689 3.96883C2.05913 4.12176 2.04114 4.62442 2.15359 5.35537C2.22893 5.84679 2.79682 9.14502 2.8508 10.4607C2.93626 12.4804 3.83925 14.1852 4.8592 14.6136C6.29297 15.2163 8.25415 15.2141 9.88471 14.3145C10.2794 14.0963 10.8394 13.335 11.1689 13.0258C11.2195 12.9763 12.2192 11.7832 12.3643 11.6887C12.7365 11.4469 13.111 11.222 13.3899 11.0725C13.6901 10.9117 13.9915 10.7261 14.1231 10.6271C14.8349 10.093 14.6999 9.53411 14.1984 9.34181Z"
            fill="#E0BB95" />
        <path
            d="M10.5198 8.91431C10.5164 9.10885 10.5085 9.20219 10.5175 9.39448C9.26707 9.22805 8.21563 9.84204 7.83442 10.3886C7.27216 11.1948 7.05287 12.1541 6.78524 11.9483C6.69752 11.8808 6.98315 10.9924 7.49369 10.2334C7.85803 9.69135 8.29772 9.33263 8.7689 9.17407C9.17598 9.03688 9.64266 8.93342 10.5198 8.91431Z"
            fill="#C48E6A" />
    </g>
    <defs>
        <clipPath id="clip0_1517_45669">
            <rect fill="white" height="14.3939" transform="translate(0.803711 0.820068)"
                width="14.3939" />
        </clipPath>
    </defs>
</svg>
