<svg fill="none" height="15" viewBox="0 0 16 15" width="16" xmlns="http://www.w3.org/2000/svg">
    <g clip-path="url(#clip0_1517_45693)">
        <path
            d="M6.59695 10.0715C6.48897 10.175 6.37875 10.0546 6.37875 10.0546C6.37875 10.0546 4.52624 8.13803 4.40701 8.05367C4.23829 7.93332 3.87836 7.7466 3.52406 8.12003C3.37671 8.27525 3.13601 8.61943 3.59604 9.16382C3.69502 9.2808 6.58008 12.2502 6.74767 12.4099C6.74767 12.4099 8.07941 13.6753 8.88025 14.1477C9.10296 14.2793 9.35266 14.4177 9.64398 14.5133C9.93417 14.6089 10.2615 14.673 10.6057 14.6696C10.9498 14.6696 11.3064 14.5988 11.6427 14.4717C11.979 14.3434 12.2917 14.1578 12.5751 13.9453C12.6449 13.8913 12.7146 13.8362 12.781 13.7788L12.9711 13.6179C13.1038 13.5043 13.2264 13.3862 13.3445 13.2636C13.5818 13.0207 13.7955 12.7631 13.9834 12.4988C14.1701 12.2333 14.3287 11.9589 14.4535 11.6867C14.5784 11.4145 14.6661 11.1412 14.7167 10.8825C14.7707 10.6249 14.7842 10.382 14.773 10.1716C14.7685 9.96017 14.7246 9.77908 14.6875 9.63511C14.6459 9.49113 14.6031 9.38316 14.5683 9.31229C14.5345 9.24143 14.5165 9.20319 14.5165 9.20319C14.4693 9.07609 14.4254 8.95461 14.3838 8.84551C14.2713 8.53732 14.142 8.19089 14.007 7.83546C13.9496 7.68474 13.9238 7.61613 13.9238 7.61613L13.9249 7.61838C13.43 6.32151 12.898 4.98415 12.898 4.98415C12.817 4.74907 12.529 4.66921 12.3176 4.82443C11.7113 5.27097 11.5314 5.91434 11.7552 6.59595L12.3266 8.10541C12.4064 8.27412 12.1938 8.47208 12.0476 8.35623C11.5887 7.9918 10.6158 6.98288 10.6158 6.98288C10.1816 6.57571 7.7296 4.12032 7.56426 3.97072C7.2347 3.67041 6.82078 3.51856 6.50922 3.75364C6.19203 3.99209 6.10655 4.35765 6.42036 4.75132C6.50585 4.85817 8.98486 7.41704 8.98486 7.41704C9.12995 7.56551 8.96349 7.7781 8.80489 7.63525C8.80489 7.63525 5.72075 4.49262 5.58128 4.34527C5.26521 4.01121 4.76356 3.9426 4.47 4.2238C4.18318 4.49937 4.19555 4.9459 4.51611 5.29234C4.61847 5.40256 6.79041 7.64312 7.66099 8.56094C7.71948 8.62281 7.76447 8.70491 7.68124 8.78477C7.68011 8.7859 7.59576 8.88038 7.48328 8.76228C7.24707 8.51595 4.88616 6.11342 4.75457 5.98295C4.45313 5.68488 4.05158 5.54654 3.73439 5.8446C3.4442 6.1168 3.40258 6.58471 3.74339 6.91202L6.6037 9.86568C6.60595 9.86681 6.69818 9.97479 6.59695 10.0715V10.0715Z"
            fill="#E0BB95" />
        <path
            d="M5.5386 9.36053C5.48011 9.49775 5.33051 9.42914 5.33051 9.42914C5.33051 9.42914 2.8785 8.38422 2.73565 8.35273C2.53319 8.30774 2.12939 8.27624 1.9483 8.75765C1.87294 8.95786 1.78521 9.3684 2.42071 9.69121C2.55793 9.76095 6.36981 11.3728 6.58689 11.456C6.58689 11.456 8.30555 12.1039 9.22787 12.2265C9.48432 12.2602 9.76889 12.2917 10.0737 12.2658C10.3785 12.2411 10.7047 12.1736 11.0208 12.0353C11.338 11.9014 11.6383 11.6967 11.8981 11.4492C12.1579 11.2007 12.3739 10.9082 12.5516 10.6023C12.5955 10.5258 12.6382 10.4482 12.6764 10.3695L12.79 10.1479C12.8677 9.99153 12.9351 9.83406 12.997 9.67659C13.1219 9.36053 13.2175 9.03997 13.2883 8.72278C13.3569 8.40559 13.3963 8.09178 13.4053 7.79146C13.4143 7.49115 13.3884 7.20545 13.3356 6.94788C13.2861 6.68918 13.2028 6.46085 13.1106 6.27076C13.024 6.0773 12.9126 5.92883 12.8238 5.8096C12.7293 5.69375 12.6483 5.61052 12.5887 5.55878C12.5302 5.50704 12.4987 5.47892 12.4987 5.47892C12.4065 5.37994 12.3176 5.28546 12.2378 5.2011C12.0139 4.9604 11.7597 4.6927 11.4977 4.41825C11.3863 4.30128 11.3357 4.24954 11.3357 4.24954L11.338 4.25179C10.3751 3.24961 9.36509 2.22494 9.36509 2.22494C9.19975 2.03935 8.90281 2.07871 8.76896 2.30367C8.38428 2.95154 8.46864 3.61291 8.93993 4.15393L10.0535 5.32257C10.1929 5.4463 10.0737 5.71175 9.89374 5.66226C9.3291 5.50479 8.04123 4.95365 8.04123 4.95365C7.48221 4.74781 4.2676 3.4397 4.05726 3.36546C3.6366 3.21699 3.19681 3.23836 3.0011 3.57579C2.80201 3.91885 2.865 4.2889 3.30816 4.52961C3.42851 4.59484 6.70724 5.98732 6.70724 5.98732C6.89845 6.06718 6.82759 6.32813 6.62626 6.25839C6.62626 6.25839 2.56243 4.56335 2.37684 4.48124C1.95618 4.29565 1.4669 4.42838 1.30606 4.8018C1.14971 5.16736 1.3353 5.57452 1.76496 5.76799C1.90106 5.82985 4.77487 7.04911 5.93339 7.55526C6.011 7.589 6.08411 7.64749 6.03912 7.75435C6.03912 7.75547 5.99751 7.87582 5.84791 7.81058C5.5341 7.67561 2.42521 6.37987 2.25312 6.31125C1.85945 6.15379 1.43653 6.18303 1.25881 6.58008C1.09685 6.94338 1.24082 7.39104 1.68173 7.55976L5.46549 9.16819C5.46549 9.16819 5.59371 9.2323 5.5386 9.36053V9.36053Z"
            fill="#E0BB95" />
        <path
            d="M12.1836 7.65761C12.3107 7.9523 12.5132 8.16601 12.2106 8.38534C11.799 8.6834 10.9565 7.66211 10.6191 7.31905C10.1995 6.89051 9.79124 6.43722 9.36383 6.01431C8.78232 5.43729 7.98485 4.65445 7.41684 4.06169C6.75884 3.37557 6.10085 4.19441 6.41241 4.83104C6.44165 4.89403 6.4844 4.95589 6.53951 5.02113C6.70823 5.21346 6.89044 5.3923 7.06928 5.57564C7.07153 5.57789 8.46963 6.91638 8.92741 7.37866C9.1355 7.59462 9.02302 7.86119 8.8903 7.74084C8.75757 7.62049 7.86 6.81852 7.45283 6.40348C6.81283 5.75111 5.99624 4.93677 5.26514 4.32826C4.85122 3.98296 3.87828 4.68257 4.7961 5.58351C4.83097 5.61838 7.53831 8.27174 7.88137 8.61029C7.99272 8.7194 7.81388 8.83412 7.81388 8.83412C7.73965 8.89936 4.8231 6.13353 4.71399 6.02443C4.11674 5.42492 3.08869 6.16615 3.93002 7.02436C4.23709 7.33704 5.21002 8.33697 5.84215 8.99047C6.05136 9.20755 6.56538 9.67321 6.87357 9.94203C6.93768 9.99827 6.78021 10.0646 6.74197 10.1164C6.68573 10.194 4.59252 8.29873 4.37656 8.12551C3.89628 7.74084 3.06394 8.41796 3.5521 9.0692C3.80292 9.40326 5.54633 11.0522 5.79828 11.2918C7.1064 12.5346 7.35722 12.8428 8.94879 13.9687C9.15125 14.1127 9.72826 14.5581 9.55842 14.4861C7.32348 13.5278 5.35624 11.3098 3.65558 9.75982C3.15843 9.30653 2.776 8.46295 3.36426 7.90056C3.59596 7.6801 3.75456 7.63286 4.05487 7.65086C4.05487 7.65086 4.03688 7.62949 3.7748 7.35054C3.52173 7.08172 2.93909 6.27188 3.48011 5.74886C3.90528 5.33719 4.38106 5.51715 4.34507 5.47666C3.94127 4.99413 3.99076 4.45986 4.33494 4.13705C4.74886 3.74788 5.31125 3.731 6.04123 4.48461C5.99624 4.34963 5.89164 4.0167 6.24032 3.70064C6.91519 3.08651 7.48657 3.52742 8.7722 4.9109C9.84073 6.05705 11.4975 7.74759 11.4975 7.74759C11.592 7.83195 11.8383 8.12776 11.9924 8.03441C12.0824 7.97929 11.9407 7.81395 11.7922 7.47427C11.2591 6.25838 11.2478 5.20222 12.439 4.76693C12.5155 4.69606 11.9868 5.15947 11.8271 5.68137C11.673 6.18302 11.8912 6.97712 12.1836 7.65761V7.65761Z"
            fill="#C48E6A" />
        <path
            d="M13.4482 2.81649L12.0591 3.93227M12.1637 0.764893L11.4428 3.02682L12.1637 0.764893ZM5.55117 2.96721L4.34766 1.53537L5.55117 2.96721ZM6.70969 0.764893L6.44312 2.85248L6.70969 0.764893Z"
            stroke="#444444" stroke-linecap="round" stroke-miterlimit="10" stroke-width="0.75" />
    </g>
    <defs>
        <clipPath id="clip0_1517_45693">
            <rect fill="white" height="14.3972" transform="translate(0.772461 0.414062)"
                width="14.3972" />
        </clipPath>
    </defs>
</svg>
